<?xml version="1.0" encoding="utf-8"?>
<!-- Generator: Adobe Illustrator 27.5.0, SVG Export Plug-In . SVG Version: 6.00 Build 0)  -->
<svg version="1.1" xmlns="http://www.w3.org/2000/svg" xmlns:xlink="http://www.w3.org/1999/xlink" x="0px" y="0px"
	 viewBox="0 0 500 500" style="enable-background:new 0 0 500 500;" xml:space="preserve">
<g id="BACKGROUND">
	<rect style="fill:#061014;" width="500" height="500"/>
</g>
<g id="OBJECTS">
	<g>
		<rect x="114.406" y="284.894" style="fill:none;" width="271.188" height="23.057"/>
		
			<text transform="matrix(1 0 0 1 122.6753 305.2305)" style="fill:#FFE092; font-family:'AaarghNormal'; font-size:22.2267px; letter-spacing:12;">BRAND NAME</text>
		<g>
			<path style="fill:#FFE092;" d="M205.857,151.687c0.664-0.495,0.801-1.435,0.305-2.099c-0.495-0.664-1.435-0.801-2.099-0.305
				c-16.304,12.161-27.617,30.65-30.319,51.824c-0.211-0.225-0.43-0.441-0.666-0.636c-1.541-1.279-3.558-1.942-5.622-1.944
				c-0.995,0-2.004,0.156-2.979,0.48c-3.104,1.041-5.515,3.568-6.685,6.551c-0.598,1.527-0.854,3.061-0.854,4.562
				c0.007,3.832,1.626,7.409,3.368,10.634c0.719,1.327,1.504,2.982,2.103,4.722c0.6,1.739,1.008,3.563,1.006,5.202
				c0,1.272-0.24,2.419-0.778,3.382c-0.37,0.657-0.893,1.239-1.608,1.744c-0.676,0.286-1.341,0.599-1.985,0.96
				c-0.486,0.133-0.99,0.212-1.489,0.211c-0.724,0-1.429-0.147-2.053-0.448c-0.642-0.309-1.22-0.775-1.641-1.327
				c-0.422-0.553-0.685-1.183-0.744-1.846l-0.007-0.163c-0.007-0.534,0.242-1.23,0.633-1.723c0.192-0.248,0.414-0.445,0.626-0.569
				c0.214-0.125,0.41-0.179,0.599-0.179c0.218,0.003,0.456,0.063,0.783,0.311c0.207,0.148,0.354,0.469,0.343,0.644l-0.034,0.151
				c-0.015,0.022-0.042,0.049-0.09,0.082c-0.048-0.395-0.327-0.74-0.735-0.847c-0.534-0.14-1.081,0.18-1.221,0.714
				c-0.039,0.148-0.061,0.302-0.061,0.458c-0.002,0.286,0.078,0.577,0.217,0.812c0.21,0.357,0.516,0.578,0.81,0.709
				c0.298,0.132,0.599,0.187,0.901,0.188c0.304-0.001,0.614-0.056,0.925-0.208l0.001,0c0.413-0.203,0.756-0.518,0.974-0.889
				c0.22-0.371,0.313-0.782,0.313-1.169c-0.011-0.883-0.427-1.678-1.118-2.225c-0.614-0.48-1.322-0.733-2.008-0.73
				c-0.592,0-1.143,0.179-1.611,0.454c-0.704,0.416-1.244,1.035-1.63,1.731c-0.383,0.698-0.615,1.482-0.617,2.286
				c0,0.113,0.005,0.226,0.015,0.339c0.057,0.652,0.247,1.264,0.517,1.83c-0.911-0.525-1.935-0.763-2.955-0.763
				c-1.639,0.004-3.282,0.582-4.598,1.602c-1.31,1.016-2.305,2.526-2.457,4.349c-0.015,0.182-0.023,0.364-0.023,0.544
				c0.003,1.704,0.643,3.295,1.524,4.627c0.665,1,1.451,1.817,2.198,2.591c0.749,0.773,1.458,1.504,2.017,2.301
				c1.101,1.569,1.89,3.394,2.242,5.266c0.124,0.658,0.184,1.319,0.184,1.974c0.004,3.876-2.114,7.613-5.476,9.707
				c-1.703,1.063-3.685,1.596-5.666,1.596c-2.531,0-5.044-0.869-6.967-2.566c-0.942-0.829-1.831-1.965-2.468-3.212
				c-0.639-1.247-1.024-2.601-1.022-3.865c0-0.454,0.049-0.898,0.15-1.325c0.341-1.473,1.482-2.849,2.865-3.302
				c0.279-0.094,0.581-0.145,0.872-0.145c0.47,0,0.899,0.128,1.218,0.362c0.375,0.272,0.574,0.715,0.574,1.154
				c0,0.26-0.071,0.503-0.194,0.691c-0.126,0.189-0.294,0.336-0.572,0.437l-0.071,0.016l-0.008-0.005
				c0.05-0.154,0.076-0.316,0.044-0.486c-0.102-0.543-0.625-0.9-1.168-0.798c-0.302,0.047-0.633,0.267-0.791,0.532
				c-0.165,0.263-0.199,0.512-0.201,0.713c0.002,0.284,0.07,0.513,0.165,0.731c0.146,0.324,0.368,0.625,0.691,0.876
				c0.32,0.249,0.765,0.438,1.268,0.436c0.245,0,0.497-0.044,0.74-0.13c0.682-0.239,1.23-0.689,1.58-1.232
				c0.352-0.543,0.518-1.165,0.518-1.782c0-0.172-0.032-0.343-0.058-0.514c0.023-0.337-0.143-0.697-0.278-0.981
				c-0.907-1.912-2.305-3.588-4.019-4.828c-2.814-2.037-5.914-3.631-9.199-4.762c-2.185-0.752-4.5-1.111-6.524-2.281
				c-1.39-0.804-2.818-1.793-3.282-3.407c-0.123-0.427-0.371-1.823,0.113-2.137c-0.984,0.639-2.273,0.239-2.779-0.803
				c0.933,0.746,2.596,0.746,3.22-0.407c0.941-1.738-0.864-3.747-2.643-3.626c-2.203,0.148-3.012,2.586-2.808,4.462
				c0.091,0.842,0.387,1.659,0.846,2.37c0.412,0.639,0.918,1.235,1.466,1.759c-0.455-0.338-0.979-0.585-1.531-0.72
				c-0.187-0.046-0.403-0.074-0.558,0.041c-0.584,0.437,0.159,1.552,0.423,1.948c0.112,0.168,0.232,0.331,0.358,0.488
				c0.366,0.456,0.787,0.868,1.246,1.23c1.229,0.973,2.716,1.605,4.244,1.929c-0.731-0.155-2.172,0.958-1.877,1.767
				c0.201,0.553,1.047-0.049,1.375-0.172c0.666-0.25,1.352-0.449,2.048-0.595c3.782-0.792,7.901-0.076,11.214,1.905
				c-1.755-0.642-3.639-1.089-5.514-1.117c-1.086-0.016-2.415,0.016-3.354,0.639c-0.761,0.505-0.975,1.443-0.181,2.024
				c0.988,0.723,2.497,1.046,3.693,1.193c2.177,0.267,4.442-0.101,6.462-0.889l-0.317,0.396c-0.484,0.367-1.152,0.535-1.723,0.709
				c-1.721,0.523-3.464,0.895-5.085,1.702c-0.479,0.239-0.941,0.558-1.26,0.994c-0.191,0.264-0.277,0.343-0.028,0.505
				c0.141,0.092,0.354,0.126,0.509,0.21c0.603,0.331,1.479,1.071,1.383,1.85c-0.355-0.408-0.513-0.912-1.063-1.133
				c-0.438-0.176-1.025-0.333-1.464-0.074c-0.908,0.535-0.258,1.6,0.324,2.104c0.82,0.711,2.197,0.741,3.181,0.364
				c1.303-0.5,2.377-1.376,3.351-2.367c0.859-0.875,1.956-1.684,3.108-2.139c-1.254,0.946-2.136,2.333-2.497,3.831
				c-0.14,0.59-0.204,1.19-0.204,1.786c0.002,1.663,0.488,3.301,1.242,4.776c0.756,1.474,1.781,2.789,2.925,3.8
				c1.297,1.143,2.805,1.954,4.401,2.458h-11.839c-0.552,0-1,0.448-1,1c0,0.552,0.448,1,1,1h47.932c0.003,0,0.006,0.001,0.01,0.001
				c0.005,0,0.011-0.001,0.016-0.001h20.737c0.552,0,1-0.448,1-1c0-0.552-0.448-1-1-1h-12.503c3.194-1.721,5.815-4.51,7.063-7.966
				c0.509-1.418,0.76-2.919,0.76-4.42c0-1.49-0.262-2.975-0.756-4.383c4.866,7.233,10.926,13.596,17.901,18.799
				c0.664,0.495,1.604,0.359,2.099-0.305c0.495-0.664,0.359-1.604-0.305-2.099c-18.054-13.473-29.741-34.986-29.741-59.242
				C176.117,186.672,187.803,165.159,205.857,151.687z M113.79,243.792l-0.158-0.109c-1.564-1.107-2.733-2.785-3.268-4.608
				c-0.09-0.307-0.163-0.618-0.217-0.933c-0.028-0.164-0.039-0.331-0.069-0.495l-0.015-0.132c0.362,0.244,0.765,0.449,1.186,0.575
				c0.007,0.421,0.064,0.84,0.167,1.248c0.767,3.017,3.914,5.166,6.738,5.997c0.586,0.172,1.225,0.287,1.765,0.585
				C117.798,245.456,115.624,245.026,113.79,243.792z M126.175,254.674c-0.793,0.762-1.577,1.54-2.462,2.196
				c0.297-0.221,0.53-0.588,0.751-0.881c0.159-0.211,0.313-0.425,0.468-0.639c0.371-0.515,0.744-1.026,1.195-1.482
				c0.635-0.64,1.387-1.188,2.251-1.47c1.267-0.415,2.707-0.317,3.857,0.352c-0.057-0.002-0.115-0.012-0.172-0.012
				c-0.268,0-0.535,0.026-0.797,0.071c-0.304-0.039-0.613-0.054-0.92-0.031c-0.558,0.041-1.105,0.166-1.631,0.354
				C127.783,253.469,126.887,253.991,126.175,254.674z M162.064,219.801c-1.701-3.13-3.133-6.438-3.126-9.682
				c0.001-1.276,0.214-2.547,0.716-3.834c0.963-2.475,2.999-4.57,5.455-5.382c0.763-0.254,1.56-0.378,2.347-0.378
				c1.634-0.002,3.212,0.538,4.342,1.482c0.742,0.624,1.298,1.405,1.6,2.36c-0.11,1.305-0.19,2.619-0.234,3.942
				c-0.119,0.257-0.251,0.498-0.403,0.706c-0.27,0.371-0.582,0.654-0.915,0.843c-0.334,0.188-0.688,0.287-1.091,0.288
				c-0.501-0.001-1.101-0.16-1.81-0.609c-0.248-0.157-0.471-0.384-0.619-0.631c-0.15-0.248-0.226-0.508-0.226-0.747l0.001-0.051
				l0-0.002c0.008-0.23,0.111-0.48,0.24-0.63c0.135-0.155,0.241-0.185,0.295-0.184l0.165,0.053c0.481,0.27,1.091,0.1,1.362-0.382
				c0.27-0.482,0.1-1.091-0.382-1.362c-0.357-0.202-0.756-0.311-1.145-0.309c-0.768,0.001-1.408,0.396-1.824,0.895
				c-0.422,0.505-0.675,1.139-0.709,1.827l-0.003,0.144c0,0.654,0.201,1.264,0.515,1.783c0.316,0.52,0.747,0.957,1.257,1.282
				c0.962,0.613,1.943,0.922,2.883,0.921c0.752,0.001,1.463-0.2,2.076-0.548c0.104-0.059,0.195-0.135,0.293-0.202
				c0.025,4.113,0.375,8.149,1.022,12.086c-0.314-0.323-0.657-0.625-1.053-0.881c-1.021-0.662-2.215-0.995-3.412-0.996
				c-0.731,0-1.464,0.125-2.159,0.385c-1.127,0.423-2.182,1.204-2.79,2.368c-0.14,0.27-0.244,0.547-0.319,0.825
				c-0.039-0.119-0.072-0.242-0.112-0.36C163.653,222.947,162.824,221.203,162.064,219.801z M165.251,228.693
				c0.122,0.145,0.241,0.293,0.379,0.42c0.798,0.739,1.846,1.219,2.979,1.316l0.255,0.01c0.56-0.005,1.136-0.127,1.682-0.416
				c0.271-0.148,0.538-0.342,0.762-0.63c0.223-0.282,0.388-0.682,0.385-1.107c0-0.478-0.189-0.922-0.47-1.302
				c-0.328-0.445-0.954-0.539-1.398-0.212c-0.445,0.327-0.539,0.954-0.212,1.398l0.036,0.061c-0.15,0.107-0.54,0.215-0.785,0.207
				l-0.088-0.003c-0.661-0.053-1.322-0.356-1.783-0.788c-0.466-0.436-0.717-0.959-0.716-1.483c0.001-0.273,0.063-0.561,0.231-0.886
				c0.315-0.618,0.963-1.136,1.715-1.415c0.46-0.172,0.957-0.259,1.459-0.259c0.822-0.001,1.649,0.235,2.322,0.673
				c0.669,0.436,1.155,1.011,1.485,1.682c0.329,0.67,0.497,1.438,0.496,2.223c0.002,1.188-0.386,2.404-1.106,3.346
				c-0.608,0.791-1.107,1.172-1.71,1.457c-0.604,0.283-1.371,0.456-2.423,0.656c-1.36,0.261-2.762,0.566-4.157,0.946
				c0.579-1.223,0.826-2.558,0.826-3.911C165.414,230.019,165.346,229.356,165.251,228.693z M154.632,238.328
				c0.491,0.237,1.005,0.4,1.526,0.505c-0.065,0.06-0.138,0.108-0.202,0.169c-0.696,0.66-1.33,1.383-1.92,2.139
				c0.162-0.457,0.247-0.938,0.247-1.422c0-0.576-0.111-1.158-0.342-1.707c-0.017-0.04-0.04-0.073-0.058-0.113
				C154.124,238.056,154.373,238.202,154.632,238.328z M148.986,249.462c-0.684-0.974-1.476-1.776-2.216-2.543
				c-0.743-0.767-1.435-1.499-1.969-2.306c-0.724-1.088-1.194-2.337-1.19-3.521c0-0.126,0.005-0.252,0.016-0.377
				c0.099-1.18,0.736-2.188,1.693-2.938c0.952-0.746,2.213-1.183,3.368-1.18c0.745,0,1.438,0.174,2.014,0.522
				c0.577,0.351,1.057,0.869,1.397,1.669c0.123,0.291,0.186,0.614,0.185,0.931c0.001,0.498-0.157,0.965-0.406,1.272
				c-0.256,0.306-0.557,0.492-1.081,0.521l-0.116,0.002c-0.268,0.002-0.609-0.04-0.845-0.121c-0.118-0.039-0.208-0.086-0.257-0.122
				l-0.056-0.053l-0.027-0.123c-0.002-0.055,0.018-0.124,0.046-0.191c0.299,0.397,0.842,0.533,1.285,0.279
				c0.479-0.275,0.645-0.886,0.37-1.365h0c-0.172-0.3-0.392-0.564-0.677-0.759c-0.282-0.196-0.634-0.309-0.97-0.306
				c-0.34,0-0.647,0.103-0.898,0.249c-0.377,0.222-0.648,0.534-0.844,0.887c-0.193,0.355-0.312,0.762-0.313,1.206
				c0,0.338,0.074,0.699,0.247,1.036c0.169,0.329,0.415,0.582,0.67,0.764c0.386,0.274,0.794,0.414,1.18,0.502
				c0.387,0.086,0.758,0.116,1.087,0.116l0.194-0.004c0.771-0.025,1.458-0.301,1.998-0.721c-1.542,2.468-2.537,5.277-2.807,8.195
				c-0.008,0.09-0.005,0.179-0.012,0.269C149.731,250.635,149.384,250.031,148.986,249.462z M142.537,270.545
				c0.98-0.311,1.93-0.735,2.82-1.29c3.291-2.056,5.554-5.426,6.213-9.163c1.119,2.536,2.773,4.806,4.799,6.683
				c1.664,1.541,3.587,2.807,5.66,3.77H142.537z M183.633,249.757c-0.01-0.009-0.018-0.02-0.028-0.03
				c-1.069-1.001-2.458-1.753-4.066-1.754c-0.546,0-1.109,0.089-1.673,0.275c-0.864,0.289-1.524,0.889-1.989,1.572
				c-0.461,0.69-0.747,1.479-0.752,2.299c-0.003,0.62,0.188,1.302,0.695,1.818c0.506,0.519,1.252,0.771,2.059,0.765l0.243-0.007
				l0.001,0c0.515-0.03,0.979-0.211,1.359-0.515c0.189-0.154,0.359-0.342,0.489-0.575c0.13-0.232,0.217-0.514,0.217-0.819
				c0.002-0.318-0.101-0.646-0.277-0.913c-0.176-0.269-0.412-0.48-0.68-0.649c-0.467-0.294-1.085-0.154-1.379,0.313
				c-0.236,0.375-0.182,0.839,0.086,1.163l-0.059,0.002c-0.443-0.006-0.574-0.111-0.633-0.167c-0.057-0.059-0.119-0.168-0.122-0.416
				c-0.005-0.314,0.141-0.79,0.409-1.179c0.265-0.396,0.632-0.69,0.958-0.793c0.369-0.122,0.714-0.174,1.047-0.174
				c0.96-0.001,1.879,0.45,2.701,1.216c0.816,0.759,1.49,1.815,1.888,2.813c0.524,1.31,0.791,2.734,0.791,4.157
				c0,1.278-0.215,2.553-0.642,3.744c-1.346,3.771-4.743,6.762-8.637,7.949c-1.199,0.366-2.446,0.584-3.706,0.66
				c-0.357,0.022-0.714,0.032-1.069,0.032h-0.029c-4.88-0.001-9.612-1.996-13.105-5.237c-3.498-3.246-5.741-7.702-5.741-12.634
				c0-0.497,0.023-0.999,0.07-1.507c0.369-4.035,2.322-7.921,5.273-10.713c0.745-0.706,1.576-1.307,2.469-1.827
				c0.32-0.099,0.636-0.211,0.94-0.349c0.465-0.212,0.886-0.456,1.278-0.72c0.24-0.098,0.473-0.205,0.718-0.296
				c2.032-0.751,4.232-1.241,6.386-1.654c1.063-0.206,1.99-0.391,2.889-0.806c0.9-0.413,1.713-1.074,2.458-2.059
				c0.525-0.691,0.907-1.467,1.16-2.279C177.425,237.313,180.135,243.793,183.633,249.757z"/>
			<path style="fill:#FFE092;" d="M392.4,236.971c0.204-1.876-0.604-4.314-2.808-4.462c-1.779-0.121-3.584,1.888-2.644,3.626
				c0.625,1.153,2.287,1.152,3.221,0.407c-0.507,1.042-1.796,1.441-2.78,0.803c0.484,0.314,0.236,1.71,0.114,2.137
				c-0.464,1.614-1.893,2.603-3.282,3.407c-2.023,1.17-4.339,1.529-6.524,2.281c-3.284,1.131-6.385,2.725-9.198,4.762
				c-1.714,1.24-3.113,2.916-4.02,4.828c-0.135,0.284-0.301,0.644-0.277,0.981c-0.026,0.171-0.058,0.343-0.058,0.514
				c0,0.617,0.165,1.24,0.518,1.782c0.35,0.542,0.898,0.992,1.58,1.232c0.243,0.086,0.495,0.131,0.74,0.13
				c0.677,0,1.223-0.332,1.558-0.703c0.172-0.189,0.304-0.392,0.401-0.609c0.095-0.219,0.163-0.448,0.165-0.731
				c-0.001-0.202-0.036-0.45-0.201-0.713c-0.158-0.265-0.489-0.486-0.792-0.532c-0.543-0.102-1.065,0.256-1.167,0.798
				c-0.032,0.17-0.006,0.333,0.044,0.487l-0.008,0.004l-0.071-0.016c-0.278-0.101-0.446-0.248-0.572-0.437
				c-0.123-0.189-0.194-0.431-0.194-0.691c0-0.439,0.199-0.882,0.574-1.154c0.318-0.234,0.748-0.362,1.218-0.362
				c0.292,0,0.594,0.05,0.872,0.144c1.384,0.453,2.525,1.83,2.866,3.303c0.101,0.428,0.15,0.871,0.15,1.326
				c0.002,1.263-0.382,2.617-1.022,3.864c-0.637,1.247-1.526,2.382-2.468,3.212c-1.923,1.697-4.436,2.567-6.967,2.566
				c-1.981,0-3.963-0.533-5.666-1.596c-3.362-2.094-5.48-5.831-5.476-9.707c0-0.655,0.06-1.315,0.184-1.974
				c0.352-1.872,1.141-3.696,2.242-5.266c0.558-0.798,1.268-1.528,2.017-2.301c0.747-0.774,1.534-1.591,2.198-2.591
				c0.881-1.332,1.52-2.923,1.524-4.627c0-0.18-0.007-0.361-0.023-0.543c-0.152-1.824-1.147-3.333-2.457-4.349
				c-1.315-1.02-2.958-1.598-4.598-1.602c-1.02,0-2.044,0.237-2.955,0.763c0.269-0.567,0.459-1.178,0.517-1.831l0-0.001
				c0.01-0.112,0.014-0.225,0.014-0.337c-0.007-1.071-0.407-2.11-1.055-2.952c-0.327-0.419-0.723-0.789-1.192-1.066
				c-0.468-0.275-1.019-0.455-1.611-0.454c-0.686-0.003-1.394,0.25-2.008,0.73c-0.691,0.547-1.107,1.342-1.118,2.225
				c-0.001,0.388,0.093,0.799,0.313,1.17c0.218,0.371,0.561,0.686,0.974,0.889c0.311,0.153,0.621,0.207,0.926,0.208
				c0.402-0.004,0.807-0.094,1.195-0.35c0.192-0.129,0.378-0.309,0.516-0.546c0.139-0.235,0.219-0.526,0.217-0.812
				c0-0.157-0.022-0.311-0.061-0.459c-0.14-0.534-0.687-0.854-1.221-0.714c-0.408,0.107-0.687,0.452-0.735,0.846
				c-0.048-0.032-0.075-0.06-0.09-0.082l-0.034-0.151c-0.011-0.175,0.136-0.495,0.343-0.644c0.327-0.249,0.566-0.308,0.783-0.312
				c0.188,0,0.384,0.054,0.598,0.179c0.319,0.184,0.656,0.541,0.891,0.971c0.238,0.428,0.371,0.922,0.369,1.321l-0.007,0.163
				c-0.059,0.663-0.323,1.293-0.744,1.846c-0.42,0.552-0.998,1.018-1.64,1.327c-0.624,0.301-1.33,0.449-2.054,0.448
				c-0.499,0-1.002-0.078-1.489-0.211c-0.643-0.361-1.308-0.674-1.984-0.96c-0.716-0.506-1.238-1.087-1.609-1.745
				c-0.539-0.963-0.778-2.11-0.778-3.382c-0.002-1.639,0.406-3.463,1.006-5.202c0.599-1.74,1.384-3.395,2.103-4.722
				c1.741-3.225,3.36-6.803,3.367-10.635c0.001-1.5-0.256-3.034-0.853-4.561c-1.171-2.983-3.581-5.51-6.686-6.551
				c-0.975-0.325-1.984-0.48-2.979-0.48c-2.064,0.002-4.08,0.665-5.622,1.944c-0.248,0.204-0.477,0.432-0.696,0.67
				c-2.694-21.188-14.012-39.69-30.325-51.858c-0.664-0.495-1.604-0.359-2.099,0.305c-0.495,0.664-0.359,1.604,0.305,2.099
				c18.055,13.473,29.741,34.986,29.742,59.242c0,24.256-11.687,45.769-29.742,59.242c-0.664,0.495-0.801,1.435-0.305,2.099
				c0.495,0.664,1.435,0.801,2.099,0.305h0c7.008-5.227,13.093-11.624,17.971-18.9c-0.519,1.438-0.791,2.96-0.791,4.485
				c0,1.5,0.251,3.001,0.76,4.418c1.248,3.456,3.869,6.245,7.063,7.966h-12.503c-0.552,0-1,0.448-1,1c0,0.552,0.448,1,1,1h20.735
				c0.006,0,0.012,0.001,0.018,0.001c0.004,0,0.007-0.001,0.011-0.001h47.931c0.552,0,1-0.448,1-1c0-0.552-0.448-1-1-1h-11.84
				c1.596-0.504,3.104-1.315,4.401-2.458c1.145-1.011,2.169-2.326,2.925-3.8c0.753-1.474,1.24-3.113,1.242-4.775
				c0-0.597-0.064-1.197-0.204-1.787c-0.361-1.497-1.243-2.885-2.497-3.831c1.153,0.456,2.25,1.265,3.109,2.139
				c0.973,0.991,2.047,1.867,3.35,2.367c0.984,0.377,2.362,0.347,3.182-0.364c0.582-0.504,1.231-1.568,0.323-2.104
				c-0.439-0.259-1.026-0.102-1.464,0.074c-0.55,0.221-0.708,0.725-1.063,1.133c-0.097-0.779,0.781-1.519,1.384-1.85
				c0.153-0.084,0.367-0.118,0.509-0.21c0.248-0.162,0.163-0.241-0.028-0.505c-0.318-0.437-0.78-0.755-1.26-0.994
				c-1.62-0.808-3.363-1.179-5.085-1.702c-0.571-0.174-1.239-0.342-1.724-0.709l-0.317-0.396c2.021,0.789,4.285,1.156,6.463,0.889
				c1.196-0.146,2.705-0.47,3.693-1.193c0.794-0.581,0.58-1.519-0.181-2.024c-0.939-0.623-2.268-0.655-3.354-0.639
				c-1.875,0.028-3.758,0.475-5.514,1.117c3.313-1.981,7.433-2.697,11.215-1.905c0.696,0.146,1.381,0.345,2.047,0.595
				c0.329,0.123,1.176,0.726,1.376,0.172c0.295-0.809-1.145-1.922-1.877-1.767c1.527-0.324,3.015-0.957,4.244-1.929
				c0.458-0.363,0.88-0.774,1.245-1.23c0.126-0.157,0.246-0.32,0.357-0.488c0.265-0.396,1.008-1.512,0.424-1.948
				c-0.154-0.115-0.37-0.087-0.558-0.041c-0.552,0.135-1.075,0.381-1.531,0.72c0.549-0.524,1.054-1.121,1.466-1.759
				C392.014,238.63,392.309,237.813,392.4,236.971z M344.051,232.281L344.051,232.281L344.051,232.281L344.051,232.281z
				 M349.299,237.118c0.577-0.348,1.27-0.522,2.014-0.522c1.156-0.004,2.416,0.434,3.368,1.18c0.957,0.75,1.594,1.758,1.693,2.938
				c0.01,0.125,0.016,0.25,0.016,0.377c0.003,1.184-0.466,2.434-1.19,3.522c-0.534,0.807-1.226,1.539-1.969,2.306
				c-0.741,0.768-1.533,1.569-2.216,2.544c-0.398,0.568-0.745,1.171-1.068,1.789c-0.007-0.09-0.004-0.178-0.012-0.268
				c-0.27-2.917-1.266-5.727-2.808-8.195c0.54,0.419,1.227,0.696,1.998,0.721l0.195,0.004c0.439-0.002,0.952-0.051,1.479-0.225
				c0.263-0.089,0.531-0.21,0.788-0.394c0.255-0.182,0.501-0.436,0.669-0.765c0.173-0.337,0.247-0.698,0.247-1.035
				c-0.004-0.592-0.206-1.117-0.535-1.543c-0.167-0.212-0.37-0.402-0.622-0.549c-0.25-0.146-0.558-0.249-0.898-0.249
				c-0.336-0.003-0.688,0.11-0.97,0.306c-0.285,0.196-0.504,0.459-0.677,0.759c-0.275,0.479-0.109,1.09,0.37,1.365
				c0.443,0.254,0.988,0.118,1.286-0.281c0.028,0.066,0.048,0.137,0.044,0.192l-0.027,0.123l-0.056,0.052
				c-0.071,0.054-0.241,0.13-0.45,0.175c-0.208,0.047-0.45,0.069-0.651,0.068l-0.116-0.002c-0.523-0.029-0.825-0.215-1.08-0.521
				c-0.249-0.307-0.408-0.774-0.406-1.272c0-0.317,0.063-0.64,0.185-0.931C348.242,237.988,348.722,237.469,349.299,237.118z
				 M345.368,238.328c0.259-0.125,0.507-0.271,0.748-0.429c-0.017,0.039-0.041,0.072-0.057,0.112
				c-0.231,0.55-0.342,1.132-0.342,1.707c0.001,0.484,0.086,0.966,0.247,1.422c-0.59-0.756-1.224-1.479-1.92-2.139
				c-0.065-0.061-0.137-0.109-0.202-0.169C344.363,238.728,344.877,238.565,345.368,238.328z M330.176,226.774
				c-0.445-0.328-1.071-0.233-1.398,0.212c-0.281,0.38-0.471,0.824-0.471,1.302c-0.003,0.425,0.162,0.825,0.385,1.107
				c0.339,0.429,0.761,0.658,1.176,0.816c0.42,0.154,0.847,0.228,1.268,0.229l0.254-0.01c1.134-0.097,2.182-0.578,2.979-1.316
				c0.138-0.127,0.257-0.275,0.379-0.42c-0.095,0.662-0.163,1.325-0.163,1.984c0,1.354,0.247,2.688,0.826,3.911
				c-1.395-0.38-2.797-0.684-4.157-0.946c-1.052-0.2-1.82-0.372-2.423-0.656c-0.603-0.285-1.102-0.666-1.71-1.457
				c-0.72-0.942-1.108-2.158-1.107-3.346c0-0.785,0.167-1.553,0.496-2.223c0.331-0.671,0.816-1.246,1.485-1.682
				c0.673-0.439,1.5-0.674,2.322-0.673c0.501,0,0.999,0.087,1.459,0.258c0.752,0.279,1.4,0.797,1.716,1.415
				c0.167,0.325,0.23,0.613,0.23,0.886c0.001,0.524-0.25,1.047-0.716,1.483c-0.462,0.432-1.122,0.735-1.784,0.788l-0.088,0.003
				c-0.219,0.005-0.557-0.075-0.731-0.175l-0.051-0.036l0.033-0.057C330.716,227.727,330.621,227.101,330.176,226.774z
				 M328.202,202.008c1.13-0.944,2.708-1.483,4.342-1.482c0.786,0,1.583,0.124,2.347,0.378c2.456,0.812,4.491,2.907,5.455,5.382
				c0.502,1.286,0.715,2.557,0.716,3.832c0.007,3.244-1.425,6.552-3.126,9.683c-0.759,1.402-1.589,3.146-2.236,5.023
				c-0.041,0.118-0.073,0.241-0.112,0.36c-0.075-0.278-0.179-0.555-0.319-0.825c-0.609-1.164-1.664-1.945-2.791-2.368
				c-0.695-0.26-1.428-0.385-2.159-0.385c-1.196,0.001-2.391,0.334-3.412,0.996c-0.412,0.267-0.77,0.583-1.094,0.922
				c0.653-3.961,1.006-8.023,1.029-12.163c0.111,0.077,0.208,0.172,0.327,0.239c0.612,0.348,1.324,0.549,2.076,0.548
				c0.939,0.001,1.921-0.308,2.883-0.921c0.509-0.325,0.941-0.762,1.257-1.282c0.315-0.519,0.515-1.13,0.516-1.784l-0.003-0.14
				l0-0.003c-0.034-0.688-0.287-1.322-0.709-1.827c-0.417-0.499-1.057-0.894-1.824-0.895c-0.389-0.001-0.788,0.107-1.145,0.31
				c-0.482,0.271-0.652,0.88-0.382,1.362c0.271,0.481,0.88,0.652,1.362,0.382l0.165-0.053c0.054-0.001,0.16,0.029,0.295,0.184
				c0.129,0.149,0.233,0.399,0.24,0.629l0.001,0.052c0,0.239-0.075,0.499-0.226,0.747c-0.149,0.247-0.372,0.475-0.62,0.631
				c-0.708,0.449-1.308,0.608-1.809,0.609c-0.403-0.001-0.756-0.101-1.091-0.288c-0.498-0.281-0.954-0.783-1.283-1.458
				c-0.028-0.056-0.048-0.119-0.074-0.178c-0.044-1.261-0.12-2.514-0.223-3.76C326.869,203.465,327.436,202.653,328.202,202.008z
				 M328.067,270.513c-1.26-0.077-2.507-0.294-3.707-0.66c-3.893-1.187-7.291-4.178-8.637-7.949
				c-0.428-1.19-0.642-2.465-0.642-3.742c0-1.423,0.267-2.848,0.791-4.158c0.397-0.998,1.071-2.054,1.888-2.813
				c0.823-0.766,1.741-1.217,2.701-1.216c0.332,0,0.677,0.052,1.046,0.174c0.327,0.103,0.694,0.397,0.958,0.793
				c0.268,0.389,0.414,0.865,0.409,1.18c-0.003,0.248-0.065,0.357-0.122,0.416c-0.059,0.056-0.19,0.161-0.632,0.167l-0.059-0.002
				c0.268-0.324,0.322-0.787,0.086-1.162c-0.294-0.467-0.912-0.608-1.379-0.314c-0.269,0.169-0.505,0.381-0.681,0.649
				c-0.176,0.266-0.279,0.594-0.277,0.913c0,0.305,0.087,0.587,0.217,0.819c0.197,0.349,0.476,0.599,0.79,0.78
				c0.315,0.179,0.673,0.288,1.059,0.31l0.244,0.007c0.807,0.006,1.553-0.246,2.059-0.765c0.507-0.516,0.698-1.198,0.695-1.818
				c-0.005-0.82-0.291-1.61-0.752-2.3c-0.465-0.684-1.125-1.283-1.989-1.572c-0.563-0.186-1.126-0.275-1.672-0.274
				c-1.608,0.001-2.997,0.754-4.066,1.755c-0.041,0.039-0.076,0.084-0.116,0.124c3.536-6.01,6.271-12.545,8.075-19.457
				c0.252,0.837,0.637,1.637,1.177,2.347c0.744,0.985,1.558,1.646,2.457,2.059c0.899,0.416,1.826,0.6,2.89,0.806
				c2.154,0.413,4.354,0.903,6.386,1.654c0.245,0.091,0.479,0.198,0.719,0.296c0.393,0.264,0.813,0.508,1.278,0.72
				c0.303,0.139,0.619,0.251,0.94,0.349c0.893,0.52,1.723,1.121,2.469,1.827c2.952,2.792,4.905,6.678,5.274,10.713
				c0.047,0.507,0.069,1.009,0.069,1.506c0,4.932-2.243,9.389-5.741,12.635c-3.494,3.242-8.226,5.237-13.105,5.237h-0.029
				C328.781,270.545,328.424,270.534,328.067,270.513z M337.971,270.545c2.074-0.964,3.997-2.229,5.66-3.771
				c2.026-1.877,3.68-4.147,4.799-6.683c0.66,3.738,2.922,7.107,6.213,9.163c0.89,0.555,1.84,0.979,2.821,1.29H337.971z
				 M373.873,253.868c0.451,0.456,0.823,0.968,1.195,1.482c0.154,0.214,0.308,0.428,0.467,0.639c0.222,0.293,0.454,0.66,0.752,0.881
				c-0.885-0.656-1.669-1.435-2.463-2.196c-0.712-0.683-1.607-1.205-2.539-1.541c-0.525-0.188-1.074-0.313-1.631-0.354
				c-0.308-0.023-0.616-0.008-0.92,0.031c-0.262-0.045-0.529-0.071-0.797-0.071c-0.057,0-0.115,0.01-0.172,0.012
				c1.15-0.669,2.59-0.767,3.857-0.352C372.485,252.681,373.238,253.229,373.873,253.868z M389.922,237.647
				c-0.03,0.163-0.042,0.33-0.07,0.495c-0.054,0.315-0.127,0.626-0.217,0.933c-0.534,1.823-1.703,3.501-3.268,4.608l-0.158,0.109
				c-1.833,1.234-4.007,1.664-6.128,2.127c0.54-0.298,1.178-0.413,1.765-0.585c2.824-0.831,5.972-2.98,6.737-5.997
				c0.104-0.408,0.161-0.827,0.168-1.248c0.421-0.126,0.823-0.331,1.185-0.575L389.922,237.647z"/>
			<polygon style="fill:#FFE092;" points="166.103,208.017 166.103,208.017 166.103,208.016 			"/>
		</g>
		<text transform="matrix(1 0 0 1 203.7314 242.9204)" style="fill:#FFE092; font-family:'Spirax-Regular'; font-size:121.4395px;">A</text>
		<g>
			<path style="fill:#FFE092;" d="M375.567,318.83H265.616c-0.008,0-0.015,0.004-0.023,0.005c-0.008,0-0.015-0.005-0.023-0.005
				H124.433c-0.552,0-1,0.448-1,1c0,0.552,0.448,1,1,1h43.336c-0.098,0.078-0.204,0.145-0.297,0.23
				c-0.857,0.788-1.493,1.919-1.496,3.232c-0.001,0.68,0.179,1.391,0.554,2.064c0.633,1.128,1.709,1.806,2.813,2.226
				c1.114,0.418,2.297,0.587,3.333,0.589c0.102,0,0.203-0.002,0.302-0.005c1.667-0.057,3.142-0.553,4.465-1.23
				c1.985-1.02,3.67-2.428,5.369-3.542c1.704-1.121,3.365-1.937,5.327-1.987l0.002,0l0.183-0.002
				c2.212,0.001,4.149,1.023,5.573,2.629c1.42,1.603,2.278,3.78,2.275,5.948c0,0.378-0.026,0.756-0.078,1.131
				c-0.26,1.864-1.129,3.611-2.391,4.867c-1.266,1.257-2.891,2.025-4.753,2.028h-0.01c-0.725,0.004-1.962-0.188-2.882-0.596
				c-0.462-0.201-0.84-0.453-1.063-0.7c-0.223-0.255-0.31-0.456-0.316-0.752c0-0.091,0.01-0.193,0.037-0.311
				c0.084-0.369,0.201-0.505,0.259-0.556c0.061-0.049,0.097-0.064,0.205-0.068c0.14-0.006,0.386,0.08,0.542,0.206l0.053,0.055
				c-0.217,0.358-0.205,0.822,0.081,1.159c0.357,0.421,0.988,0.474,1.41,0.117h0c0.179-0.151,0.336-0.343,0.441-0.564
				c0.107-0.22,0.158-0.464,0.157-0.692c-0.002-0.39-0.133-0.719-0.299-0.985c-0.255-0.401-0.601-0.697-1.001-0.923
				c-0.401-0.222-0.866-0.371-1.383-0.373c-0.502-0.004-1.07,0.165-1.518,0.559c-0.451,0.392-0.749,0.958-0.898,1.626
				c-0.057,0.252-0.086,0.503-0.086,0.75c-0.006,0.831,0.348,1.574,0.839,2.101c0.208,0.224,0.44,0.415,0.681,0.587
				c-0.187,0.129-0.361,0.275-0.511,0.447c-1.664,1.905-0.344,4.534,1.34,5.888c0.756,0.608,1.657,1.031,2.604,1.235
				c0.851,0.184,1.743,0.257,2.612,0.237c-0.643,0.095-1.267,0.32-1.823,0.657c-0.189,0.114-0.386,0.267-0.418,0.485
				c-0.12,0.827,1.385,1.129,1.92,1.235c0.227,0.045,0.456,0.08,0.685,0.104c0.666,0.073,1.34,0.066,2.005-0.012
				c1.784-0.208,3.5-0.9,5-1.875c-0.718,0.468-0.984,2.534-0.089,2.951c0.61,0.285,0.809-0.888,0.975-1.254
				c0.336-0.741,0.73-1.458,1.176-2.14c2.422-3.704,6.338-6.461,10.625-7.54c-1.942,0.902-3.829,2.065-5.37,3.561
				c-0.892,0.866-1.943,1.969-2.198,3.233c-0.207,1.025,0.379,1.958,1.493,1.785c1.385-0.215,2.87-1.174,3.958-2.025
				c1.979-1.547,3.516-3.68,4.513-5.954c-0.026,0.06,0.079,0.46,0.063,0.577c-0.094,0.689-0.499,1.367-0.821,1.971
				c-0.97,1.818-2.081,3.53-2.739,5.497c-0.194,0.581-0.311,1.213-0.215,1.825c0.058,0.368,0.053,0.501,0.386,0.432
				c0.189-0.04,0.389-0.186,0.583-0.242c0.755-0.221,2.066-0.331,2.619,0.378c-0.619-0.043-1.154-0.323-1.779-0.057
				c-0.497,0.212-1.1,0.561-1.246,1.126c-0.301,1.169,1.087,1.505,1.966,1.442c1.239-0.089,2.38-1.18,2.871-2.282
				c0.65-1.46,0.812-3.039,0.797-4.63c-0.014-1.468,0.232-3.095,0.854-4.432c0.568-1.223,1.612-2.299,2.901-2.748
				c1.004-0.349,2.093-0.279,3.131-0.215c-0.639,1.718-0.975,3.54-0.975,5.371c0,2.828,0.756,5.675,2.281,8.155
				c1.419,2.305,3.495,4.211,5.889,5.552c2.394,1.34,5.111,2.117,7.836,2.118c0.795,0,1.59-0.067,2.377-0.206
				c3.492-0.616,6.393-2.372,8.4-4.829c0.897-1.096,1.605-2.336,2.126-3.667c0.521,1.331,1.229,2.571,2.126,3.667
				c2.007,2.457,4.907,4.213,8.4,4.829c0.786,0.139,1.582,0.206,2.376,0.206c2.725-0.001,5.442-0.779,7.836-2.118
				c2.393-1.341,4.469-3.248,5.888-5.552c1.525-2.48,2.281-5.326,2.281-8.155c0-1.83-0.336-3.653-0.975-5.37
				c1.039-0.064,2.127-0.134,3.131,0.215c1.29,0.449,2.333,1.525,2.901,2.748c0.622,1.337,0.867,2.964,0.854,4.432
				c-0.015,1.591,0.146,3.17,0.797,4.63c0.491,1.103,1.632,2.193,2.871,2.282c0.879,0.063,2.268-0.273,1.966-1.442
				c-0.146-0.565-0.749-0.914-1.246-1.126c-0.624-0.267-1.16,0.014-1.778,0.057c0.553-0.709,1.863-0.599,2.618-0.378
				c0.193,0.057,0.393,0.202,0.583,0.242c0.332,0.069,0.328-0.064,0.386-0.432c0.096-0.612-0.021-1.244-0.215-1.825
				c-0.658-1.967-1.77-3.679-2.739-5.497c-0.322-0.603-0.727-1.281-0.821-1.971c-0.017-0.117,0.089-0.518,0.063-0.577
				c0.997,2.274,2.534,4.407,4.513,5.954c1.088,0.851,2.572,1.81,3.958,2.025c1.114,0.173,1.7-0.76,1.493-1.785
				c-0.255-1.265-1.306-2.367-2.198-3.233c-1.541-1.496-3.428-2.659-5.37-3.561c4.287,1.079,8.203,3.836,10.625,7.54
				c0.446,0.682,0.84,1.398,1.177,2.14c0.166,0.366,0.364,1.539,0.975,1.254c0.895-0.417,0.629-2.483-0.09-2.951
				c1.5,0.975,3.216,1.667,5,1.875c0.665,0.077,1.339,0.085,2.005,0.012c0.229-0.024,0.458-0.059,0.685-0.104
				c0.535-0.106,2.04-0.408,1.921-1.235c-0.032-0.219-0.229-0.371-0.418-0.485c-0.556-0.337-1.18-0.563-1.823-0.657
				c0.869,0.02,1.761-0.054,2.612-0.237c0.947-0.204,1.849-0.627,2.605-1.235c1.685-1.354,3.004-3.982,1.34-5.888
				c-0.15-0.171-0.323-0.318-0.511-0.447c0.242-0.172,0.474-0.362,0.681-0.587c0.491-0.528,0.845-1.271,0.839-2.101
				c0-0.247-0.029-0.498-0.086-0.75c-0.148-0.668-0.447-1.234-0.898-1.626c-0.448-0.394-1.016-0.563-1.518-0.559
				c-0.689,0.006-1.285,0.259-1.764,0.623c-0.239,0.185-0.451,0.404-0.62,0.672c-0.167,0.267-0.298,0.595-0.299,0.985
				c-0.001,0.228,0.051,0.472,0.157,0.692c0.106,0.221,0.263,0.413,0.442,0.564c0.422,0.357,1.053,0.304,1.409-0.117
				c0.286-0.338,0.298-0.803,0.079-1.161c0.041-0.039,0.085-0.08,0.146-0.115c0.149-0.094,0.335-0.146,0.45-0.143
				c0.108,0.004,0.144,0.019,0.205,0.068c0.058,0.051,0.175,0.187,0.259,0.556c0.027,0.118,0.037,0.221,0.037,0.312
				c-0.006,0.296-0.092,0.497-0.316,0.752c-0.33,0.374-1.027,0.743-1.8,0.965c-0.767,0.229-1.603,0.331-2.145,0.331h-0.01
				c-1.862-0.002-3.487-0.771-4.753-2.028c-1.262-1.255-2.131-3.003-2.391-4.867c-0.053-0.375-0.078-0.753-0.078-1.131
				c-0.003-2.168,0.855-4.345,2.276-5.948c1.424-1.606,3.362-2.628,5.573-2.629l0.183,0.002l0.002,0
				c1.313,0.035,2.477,0.406,3.625,0.984c1.72,0.864,3.359,2.214,5.174,3.421c1.811,1.199,3.853,2.268,6.362,2.354
				c0.099,0.003,0.2,0.005,0.302,0.005c1.035-0.002,2.219-0.171,3.332-0.589c1.104-0.419,2.179-1.098,2.813-2.225
				c0.376-0.674,0.556-1.385,0.555-2.065c-0.003-1.313-0.639-2.444-1.496-3.232c-0.093-0.085-0.199-0.152-0.297-0.23h43.336
				c0.552,0,1-0.448,1-1C376.567,319.278,376.12,318.83,375.567,318.83z M280.333,336.56c-1.188-0.005-2.276-0.445-3.011-1.382
				c-0.457-0.579-0.735-1.364-0.732-2.079c0.001-0.534,0.142-1.018,0.435-1.421c0.169-0.237,0.483-0.508,0.837-0.694
				c0.353-0.19,0.742-0.294,1.031-0.291c0.22,0.001,0.369,0.049,0.48,0.122c0.109,0.076,0.219,0.185,0.322,0.467l0.02,0.165
				c0.002,0.08-0.013,0.167-0.033,0.243c-0.434-0.106-0.899,0.072-1.118,0.485c-0.259,0.488-0.073,1.093,0.415,1.352l0,0
				c0.264,0.14,0.566,0.232,0.882,0.231c0.35,0.003,0.693-0.12,0.944-0.301c0.381-0.275,0.586-0.626,0.719-0.965
				c0.131-0.343,0.19-0.693,0.191-1.045c-0.001-0.274-0.036-0.549-0.135-0.832c-0.216-0.622-0.606-1.141-1.102-1.466
				c-0.495-0.329-1.058-0.456-1.586-0.455c-0.156,0.001-0.309,0.015-0.461,0.034c0.322-0.291,0.608-0.62,0.834-0.993
				c0.489-0.815,0.706-1.736,0.706-2.642c-0.004-1.373-0.487-2.736-1.402-3.774c-0.155-0.173-0.319-0.335-0.49-0.488h11.831
				c-0.574,0.425-1.105,0.904-1.579,1.43c-0.924,1.027-1.494,2.165-1.86,3.302c-0.548,1.709-0.676,3.42-0.936,4.992
				c-0.257,1.578-0.626,2.988-1.523,4.22C283.212,335.888,281.748,336.565,280.333,336.56z M273.495,321.139l0.008,0h0.004
				c1.353-0.003,2.725,0.549,3.566,1.507c0.561,0.626,0.902,1.556,0.898,2.447c0,0.588-0.142,1.149-0.421,1.613
				c-0.189,0.319-0.517,0.643-0.892,0.867c-0.375,0.227-0.789,0.349-1.127,0.347c-0.339-0.006-0.591-0.092-0.845-0.328
				c-0.018-0.014-0.076-0.092-0.118-0.221c-0.044-0.126-0.071-0.295-0.07-0.449c0-0.019,0.004-0.031,0.005-0.049
				c0.405,0.177,0.888,0.085,1.176-0.277c0.344-0.432,0.272-1.061-0.16-1.405v0c-0.36-0.285-0.778-0.499-1.28-0.504
				c-0.324-0.003-0.655,0.11-0.898,0.286c-0.37,0.267-0.56,0.613-0.679,0.94c-0.116,0.332-0.163,0.668-0.164,1.009
				c0.001,0.363,0.055,0.731,0.176,1.091c0.123,0.359,0.313,0.718,0.631,1.024c0.635,0.613,1.46,0.888,2.227,0.882
				c0.155,0,0.307-0.018,0.458-0.037c-0.212,0.189-0.414,0.388-0.582,0.617c-0.572,0.784-0.819,1.706-0.818,2.598
				c0.001,0.405,0.066,0.802,0.158,1.192c-0.235-0.238-0.462-0.482-0.717-0.705c-1.419-1.232-2.999-2.097-4.141-3.093
				c-0.573-0.495-1.035-1.009-1.358-1.593c-0.322-0.586-0.523-1.248-0.545-2.124l0-0.002l-0.001-0.131
				c0.001-1.554,0.608-2.916,1.597-3.906C270.573,321.751,271.94,321.144,273.495,321.139z M264.566,320.83
				c-0.247,3.638-1.805,6.908-4.231,9.335c-2.648,2.647-6.296,4.28-10.335,4.281c-4.039-0.001-7.687-1.634-10.335-4.281
				c-2.425-2.427-3.984-5.697-4.23-9.335H264.566z M219.667,336.56c-1.415,0.005-2.879-0.672-3.679-1.786
				c-0.599-0.824-0.96-1.718-1.213-2.698c-0.382-1.467-0.492-3.114-0.817-4.809c-0.324-1.688-0.898-3.461-2.289-5.007
				c-0.474-0.526-1.006-1.005-1.579-1.43h11.832c-0.171,0.153-0.335,0.314-0.49,0.488c-0.915,1.039-1.399,2.401-1.402,3.774
				c0,0.906,0.217,1.827,0.706,2.642c0.225,0.373,0.511,0.702,0.833,0.993c-0.152-0.02-0.305-0.034-0.461-0.034
				c-0.528-0.001-1.091,0.127-1.586,0.455c-0.496,0.325-0.886,0.844-1.102,1.466c-0.099,0.282-0.133,0.558-0.134,0.831
				c0.004,0.469,0.1,0.936,0.352,1.385c0.129,0.223,0.304,0.445,0.558,0.625c0.251,0.181,0.594,0.304,0.944,0.301
				c0.316,0,0.618-0.091,0.882-0.232c0.488-0.259,0.674-0.864,0.415-1.352c-0.219-0.413-0.683-0.59-1.117-0.485
				c-0.02-0.077-0.036-0.163-0.034-0.243l0.02-0.164c0.104-0.282,0.213-0.391,0.322-0.467c0.111-0.073,0.26-0.121,0.48-0.122
				c0.288-0.003,0.678,0.101,1.031,0.291c0.354,0.186,0.668,0.457,0.837,0.693c0.293,0.403,0.434,0.887,0.435,1.422
				c0.003,0.715-0.274,1.5-0.731,2.079C221.943,336.116,220.855,336.555,219.667,336.56z M224.592,330.5
				c-0.168-0.229-0.371-0.428-0.582-0.617c0.151,0.019,0.303,0.036,0.458,0.037c0.767,0.006,1.592-0.269,2.226-0.881
				c0.318-0.307,0.508-0.666,0.631-1.025c0.122-0.361,0.175-0.728,0.176-1.091c-0.004-0.454-0.077-0.902-0.31-1.339
				c-0.118-0.216-0.286-0.435-0.532-0.611c-0.243-0.176-0.574-0.289-0.899-0.286c-0.502,0.004-0.92,0.219-1.28,0.503
				c-0.432,0.344-0.504,0.973-0.161,1.405c0.288,0.363,0.771,0.454,1.177,0.277c0.001,0.018,0.005,0.031,0.005,0.049
				c0.001,0.154-0.027,0.323-0.07,0.449c-0.042,0.128-0.101,0.206-0.119,0.221c-0.253,0.235-0.506,0.321-0.845,0.327
				c-0.339,0.002-0.753-0.12-1.127-0.347c-0.375-0.224-0.702-0.548-0.891-0.867c-0.279-0.464-0.421-1.025-0.421-1.613
				c-0.004-0.891,0.337-1.821,0.898-2.447c0.842-0.958,2.213-1.51,3.566-1.507h0.004l0.008,0c1.554,0.005,2.922,0.612,3.913,1.599
				c0.989,0.989,1.596,2.351,1.597,3.906l-0.001,0.134c-0.022,0.875-0.222,1.537-0.545,2.123c-0.481,0.874-1.291,1.599-2.288,2.323
				c-0.992,0.726-2.148,1.436-3.212,2.363c-0.255,0.223-0.482,0.467-0.717,0.705c0.092-0.39,0.157-0.787,0.158-1.192
				C225.41,332.207,225.163,331.285,224.592,330.5z M178.235,325.144c-1.704,1.128-3.367,1.956-5.326,2.023l-0.233,0.004
				c-0.808,0.002-1.797-0.145-2.627-0.46c-0.839-0.314-1.478-0.785-1.771-1.326c-0.221-0.4-0.302-0.756-0.303-1.093
				c-0.003-0.637,0.32-1.272,0.851-1.761c0.524-0.489,1.234-0.777,1.782-0.77c0.295,0.001,0.538,0.069,0.749,0.203
				c0.21,0.137,0.41,0.347,0.581,0.734c0.125,0.288,0.163,0.509,0.163,0.677c-0.006,0.308-0.109,0.479-0.285,0.642
				c-0.173,0.159-0.442,0.247-0.594,0.242l-0.027-0.003l0.013-0.107c0.117-0.54-0.225-1.072-0.765-1.189
				c-0.54-0.117-1.072,0.225-1.189,0.765c-0.042,0.191-0.064,0.382-0.064,0.572c-0.011,0.563,0.237,1.147,0.66,1.491
				c0.418,0.35,0.915,0.47,1.372,0.471c0.685-0.005,1.355-0.256,1.913-0.738c0.554-0.477,0.972-1.248,0.966-2.146
				c0-0.477-0.111-0.975-0.33-1.477c-0.178-0.411-0.418-0.766-0.697-1.068h12.472c-0.679,0.205-1.325,0.467-1.935,0.776
				C181.622,322.617,179.935,324.024,178.235,325.144z M191.017,320.83h7.883c-1.234,1.043-2.166,2.427-2.663,3.982
				c-0.26-0.383-0.536-0.756-0.842-1.103C194.235,322.393,192.734,321.371,191.017,320.83z M195.567,346.492l-0.216,0.039
				c-2.164,0.37-4.469-0.042-6.379-1.085c-0.321-0.176-0.632-0.369-0.931-0.58c-0.156-0.11-0.3-0.236-0.457-0.345l-0.119-0.094
				c0.491-0.096,0.983-0.257,1.425-0.495c0.347,0.335,0.732,0.628,1.146,0.874c3.064,1.823,7.354,1.015,10.314-0.6
				c0.615-0.335,1.225-0.759,1.903-0.955C200.161,344.595,198.051,346.007,195.567,346.492z M203.576,340.714
				c-2.379,1.16-4.545,2.745-7.131,3.436c-1.777,0.475-3.734,0.83-5.417-0.102c-0.446-0.246-1.777-1.176-1.639-1.822
				c-0.28,1.314-1.647,2.034-2.901,1.6c1.324-0.147,2.623-1.43,2.295-2.827c0.05,0.001,0.105,0.006,0.153,0.006h0.002h0.012
				c2.432,0.002,4.583-1.029,6.165-2.611c1.441-1.439,2.434-3.331,2.846-5.384c0.319,0.36,0.661,0.703,1.049,1.003
				c1.281,0.98,2.928,1.629,4.629,1.635c0.729,0,1.469-0.125,2.174-0.412c0.905-0.371,1.757-0.931,2.416-1.693
				c0.656-0.756,1.114-1.748,1.112-2.868c0-0.304-0.033-0.615-0.101-0.928c-0.439-1.97-2.143-3.287-3.986-3.297
				c-0.962-0.006-1.969,0.394-2.721,1.212c-0.376,0.405-0.352,1.038,0.052,1.413c0.405,0.376,1.038,0.352,1.413-0.052
				c0.398-0.42,0.809-0.567,1.255-0.573c0.859-0.01,1.819,0.687,2.032,1.722c0.039,0.178,0.056,0.345,0.056,0.504
				c-0.002,0.575-0.219,1.083-0.627,1.562c-0.405,0.473-1.006,0.883-1.657,1.147c-0.437,0.178-0.915,0.264-1.418,0.264
				c-1.168,0.006-2.464-0.487-3.409-1.219c-1.514-1.157-2.397-3.146-2.393-5.109c0-0.551,0.068-1.097,0.206-1.62
				c0.545-2.095,2.266-3.914,4.327-4.574c0.625-0.202,1.267-0.298,1.913-0.298c2.165-0.007,4.407,1.1,5.897,2.767
				c0.708,0.79,1.14,1.64,1.445,2.58c0.459,1.407,0.594,3.016,0.865,4.698c0.273,1.676,0.701,3.454,1.88,5.075
				c0.305,0.416,0.659,0.783,1.046,1.102c-0.178,0.022-0.357,0.04-0.534,0.068C210.954,337.751,207.152,338.971,203.576,340.714z
				 M220.063,338.646c-0.683-0.031-1.367,0.087-1.994,0.362c-0.7,0.308-1.319,0.775-1.817,1.353
				c-0.418,0.485-0.761,1.03-1.033,1.609c-0.483,1.026-0.786,2.175-0.809,3.305c-0.026,1.259-0.031,2.524-0.216,3.773
				c0.062-0.419-0.047-0.906-0.105-1.322c-0.042-0.3-0.091-0.598-0.139-0.895c-0.116-0.718-0.229-1.435-0.232-2.169
				c-0.005-1.032,0.162-2.085,0.632-3.014c0.837-1.652,2.486-2.917,4.374-2.998c0.25-0.011,0.493-0.07,0.744-0.074
				c0.25-0.005,0.482,0.061,0.726,0.078L220.063,338.646z M222.41,337.913c0.119-0.06,0.239-0.118,0.354-0.187
				c-0.049,0.095-0.094,0.191-0.141,0.287C222.553,337.978,222.483,337.943,222.41,337.913z M274.923,351.789
				c-1.217,1.98-3.044,3.67-5.162,4.855c-2.117,1.187-4.518,1.864-6.858,1.863c-0.683,0-1.361-0.057-2.028-0.175
				c-3.041-0.541-5.49-2.038-7.2-4.126c-1.708-2.089-2.673-4.777-2.674-7.718c0-0.513,0.029-1.033,0.09-1.559
				c0.228-2.026,1.267-4.03,2.756-5.497c1.49-1.472,3.396-2.385,5.326-2.382c0.962,0.001,1.941,0.22,2.927,0.725
				c0.865,0.441,1.76,1.188,2.404,2.059c0.65,0.873,1.038,1.853,1.035,2.763l0,0.025v-0.003c0.002,0.609-0.239,1.39-0.615,1.93
				c-0.185,0.272-0.397,0.484-0.599,0.614c-0.205,0.13-0.385,0.186-0.582,0.187c-0.189-0.001-0.417-0.051-0.725-0.238
				c-0.195-0.118-0.377-0.305-0.496-0.503c-0.122-0.197-0.172-0.398-0.169-0.508c0.005-0.105,0.019-0.113,0.036-0.135
				c0.019-0.02,0.1-0.099,0.396-0.142c0.547-0.075,0.93-0.579,0.856-1.126c-0.074-0.547-0.579-0.93-1.126-0.856
				c-0.625,0.083-1.194,0.332-1.592,0.763c-0.401,0.428-0.574,0.991-0.57,1.496c0.003,0.565,0.182,1.086,0.461,1.547
				c0.281,0.461,0.671,0.868,1.161,1.169c0.567,0.349,1.176,0.533,1.769,0.532c0.621,0.001,1.198-0.201,1.67-0.508
				c0.711-0.465,1.217-1.141,1.571-1.874c0.35-0.737,0.548-1.541,0.556-2.336v-0.003v-0.032c-0.003-1.469-0.593-2.826-1.429-3.955
				c-0.841-1.13-1.937-2.049-3.097-2.647c-1.26-0.648-2.569-0.946-3.84-0.945c-2.567,0.003-4.938,1.189-6.731,2.959
				c-1.016,1.005-1.848,2.208-2.441,3.52c-0.592-1.312-1.425-2.515-2.441-3.52c-1.793-1.77-4.164-2.956-6.731-2.959
				c-1.271-0.001-2.58,0.298-3.84,0.945c-1.16,0.597-2.256,1.517-3.097,2.647c-0.835,1.128-1.425,2.485-1.429,3.954l0,0.036
				c0.013,1.058,0.352,2.139,0.962,3.044c0.308,0.45,0.69,0.857,1.164,1.165c0.471,0.307,1.048,0.51,1.67,0.508
				c0.593,0.001,1.202-0.183,1.768-0.531c0.49-0.302,0.88-0.709,1.162-1.169c0.279-0.462,0.458-0.982,0.461-1.547
				c0.004-0.505-0.169-1.069-0.57-1.496c-0.399-0.43-0.967-0.68-1.592-0.763c-0.547-0.075-1.051,0.309-1.126,0.856
				c-0.075,0.547,0.309,1.051,0.856,1.126c0.297,0.043,0.377,0.122,0.397,0.142c0.017,0.023,0.031,0.031,0.036,0.135
				c0.003,0.11-0.048,0.311-0.169,0.508c-0.119,0.198-0.301,0.385-0.497,0.503c-0.308,0.186-0.536,0.236-0.724,0.237
				c-0.197-0.001-0.378-0.056-0.582-0.187c-0.303-0.192-0.628-0.58-0.854-1.058c-0.229-0.475-0.359-1.031-0.36-1.486l0-0.004v-0.018
				c-0.003-0.91,0.385-1.889,1.035-2.762c0.644-0.871,1.539-1.618,2.404-2.059c0.987-0.505,1.965-0.724,2.927-0.725
				c1.93-0.003,3.836,0.91,5.326,2.382c1.49,1.467,2.528,3.471,2.757,5.497c0.06,0.526,0.09,1.046,0.09,1.559
				c-0.001,2.941-0.967,5.629-2.674,7.718c-1.71,2.088-4.16,3.585-7.2,4.126c-0.666,0.118-1.345,0.175-2.028,0.175
				c-2.34,0.001-4.741-0.677-6.859-1.863c-2.118-1.185-3.946-2.876-5.162-4.855c-1.321-2.146-1.985-4.634-1.984-7.107
				c0.001-3.614,1.413-7.162,4.192-9.59c1.19-1.049,2.757-1.906,4.133-3.086c0.686-0.592,1.325-1.28,1.8-2.137
				c0.476-0.855,0.771-1.875,0.795-3.048l0.002-0.178c0.001-2.085-0.828-3.971-2.184-5.321c-0.173-0.173-0.356-0.337-0.545-0.492
				h2.15c0.52,8.709,7.726,15.615,16.565,15.616c8.839-0.001,16.045-6.907,16.566-15.616h2.149c-0.19,0.155-0.372,0.319-0.545,0.492
				c-1.356,1.351-2.185,3.237-2.184,5.321l0.002,0.178c0.024,1.172,0.318,2.192,0.794,3.047c0.716,1.288,1.786,2.185,2.859,2.97
				c1.078,0.783,2.181,1.469,3.074,2.253c2.78,2.428,4.192,5.976,4.192,9.59C276.908,347.154,276.243,349.642,274.923,351.789z
				 M277.235,337.726c0.115,0.069,0.235,0.127,0.354,0.187c-0.072,0.03-0.143,0.064-0.213,0.1
				C277.33,337.917,277.284,337.821,277.235,337.726z M286.049,346.83c-0.048,0.298-0.097,0.596-0.139,0.895
				c-0.058,0.416-0.167,0.903-0.105,1.322c-0.185-1.248-0.189-2.514-0.216-3.773c-0.022-1.13-0.325-2.278-0.809-3.305
				c-0.273-0.579-0.614-1.124-1.033-1.609c-0.498-0.578-1.117-1.046-1.817-1.353c-0.626-0.275-1.311-0.394-1.993-0.362l-0.132,0.008
				c0.245-0.018,0.477-0.083,0.727-0.078c0.251,0.004,0.493,0.064,0.743,0.074c1.888,0.081,3.537,1.346,4.374,2.998
				c0.471,0.929,0.637,1.981,0.632,3.014C286.277,345.396,286.165,346.112,286.049,346.83z M312.416,344.522
				c-0.157,0.108-0.302,0.234-0.457,0.345c-0.299,0.211-0.61,0.404-0.932,0.58c-1.909,1.043-4.215,1.455-6.379,1.085l-0.216-0.039
				c-2.484-0.485-4.594-1.897-6.686-3.24c0.679,0.196,1.288,0.62,1.903,0.955c2.96,1.614,7.25,2.423,10.314,0.6
				c0.414-0.246,0.8-0.539,1.147-0.874c0.442,0.238,0.934,0.399,1.425,0.495L312.416,344.522z M304.884,338.396
				c1.582,1.582,3.733,2.613,6.165,2.611h0.012h0.002c0.047,0,0.104-0.007,0.153-0.008c-0.33,1.397,0.97,2.681,2.295,2.829
				c-1.254,0.434-2.621-0.286-2.901-1.6c0.138,0.646-1.193,1.576-1.639,1.822c-1.683,0.932-3.64,0.576-5.417,0.102
				c-2.587-0.691-4.752-2.276-7.131-3.436c-3.576-1.743-7.378-2.963-11.307-3.593c-0.177-0.028-0.356-0.047-0.534-0.068
				c0.388-0.319,0.741-0.686,1.046-1.102c0.785-1.078,1.239-2.235,1.533-3.375c0.438-1.713,0.545-3.402,0.844-4.928
				c0.299-1.534,0.756-2.87,1.813-4.05c1.49-1.666,3.732-2.774,5.897-2.767c0.647,0,1.288,0.095,1.913,0.298
				c2.061,0.66,3.782,2.479,4.327,4.573c0.138,0.523,0.206,1.069,0.206,1.62c0.004,1.963-0.879,3.952-2.393,5.109
				c-0.945,0.733-2.241,1.225-3.409,1.219c-0.503,0-0.981-0.086-1.418-0.264c-0.651-0.264-1.252-0.674-1.657-1.147
				c-0.408-0.479-0.625-0.987-0.627-1.562c0-0.159,0.017-0.326,0.056-0.503c0.213-1.035,1.174-1.733,2.033-1.722
				c0.446,0.006,0.858,0.153,1.256,0.573c0.376,0.405,1.009,0.428,1.413,0.052c0.405-0.376,0.428-1.009,0.052-1.413
				c-0.752-0.818-1.759-1.218-2.721-1.212c-1.844,0.01-3.548,1.328-3.987,3.298c-0.068,0.313-0.101,0.624-0.101,0.928
				c-0.002,1.12,0.456,2.112,1.112,2.868c0.659,0.762,1.512,1.322,2.417,1.693c0.704,0.287,1.444,0.412,2.174,0.412
				c1.701-0.006,3.348-0.654,4.629-1.635c0.388-0.3,0.73-0.643,1.049-1.003C302.451,335.065,303.443,336.957,304.884,338.396z
				 M304.604,323.709c-0.306,0.347-0.582,0.72-0.842,1.103c-0.496-1.555-1.428-2.939-2.663-3.982h7.883
				C307.266,321.371,305.764,322.393,304.604,323.709z M326.864,325.522c0.557,0.482,1.227,0.733,1.913,0.738
				c0.457-0.001,0.954-0.121,1.372-0.471c0.423-0.345,0.671-0.929,0.66-1.492c0-0.19-0.022-0.38-0.064-0.571
				c-0.117-0.54-0.649-0.883-1.189-0.766c-0.54,0.117-0.883,0.649-0.766,1.189l0.013,0.108l-0.027,0.004
				c-0.152,0.005-0.421-0.083-0.594-0.242c-0.176-0.164-0.279-0.335-0.285-0.642c0-0.168,0.038-0.389,0.163-0.677
				c0.172-0.388,0.372-0.598,0.581-0.734c0.211-0.134,0.454-0.202,0.749-0.203c0.548-0.007,1.258,0.28,1.782,0.77
				c0.531,0.49,0.854,1.124,0.851,1.761c-0.001,0.337-0.082,0.693-0.303,1.093c-0.293,0.54-0.932,1.011-1.771,1.326
				c-0.829,0.315-1.818,0.462-2.626,0.46l-0.233-0.004c-1.311-0.046-2.476-0.427-3.624-1.012c-1.72-0.875-3.36-2.229-5.179-3.432
				c-1.157-0.763-2.411-1.466-3.819-1.894h12.456c-0.278,0.302-0.518,0.657-0.697,1.068c-0.22,0.502-0.331,1-0.33,1.477
				C325.892,324.274,326.309,325.045,326.864,325.522z"/>
			<polygon style="fill:#FFE092;" points="265.988,326.823 265.988,326.822 265.987,326.821 			"/>
			<polygon style="fill:#FFE092;" points="232.462,342.637 232.462,342.633 232.462,342.633 			"/>
		</g>
	</g>
</g>
<g id="DESIGNED_BY_FREEPIK">
	<g>
		<g id="XMLID_319_">
			<g id="XMLID_338_">
				<path id="XMLID_346_" style="fill:#F9FBFC;" d="M260.104,465.465c-0.432,0.443-0.803,0.931-1.108,1.453l-0.465-0.241
					c-0.067-0.298-0.349-0.503-0.659-0.466c-0.331,0.039-0.568,0.339-0.529,0.67c0.039,0.331,0.339,0.568,0.67,0.529
					c0.066-0.008,0.127-0.026,0.184-0.052l0.451,0.234c-0.251,0.554-0.433,1.139-0.539,1.744l0.747,0.132
					c0.23-1.306,0.85-2.507,1.792-3.473L260.104,465.465z"/>
				<path id="XMLID_345_" style="fill:#F9FBFC;" d="M265.592,463.163c-0.171,0-0.341,0.006-0.51,0.017l-0.074-0.626
					c0.188-0.149,0.296-0.389,0.266-0.645c-0.046-0.393-0.402-0.674-0.795-0.628c-0.393,0.046-0.674,0.402-0.628,0.795
					c0.03,0.254,0.189,0.461,0.404,0.564l0.074,0.624c-0.714,0.116-1.403,0.332-2.06,0.646l0.327,0.684
					c0.934-0.447,1.942-0.673,2.995-0.673c0.496,0,0.993,0.053,1.475,0.158l0.161-0.741
					C266.692,463.222,266.142,463.163,265.592,463.163z"/>
				<path id="XMLID_344_" style="fill:#F9FBFC;" d="M272.194,465.711c0.331-0.04,0.566-0.341,0.526-0.672
					c-0.04-0.331-0.341-0.566-0.672-0.526c-0.309,0.038-0.535,0.304-0.53,0.609l-0.416,0.363c-0.418-0.43-0.889-0.813-1.408-1.139
					l-0.404,0.641c1.134,0.715,2.021,1.726,2.563,2.925l0.69-0.313c-0.251-0.554-0.567-1.072-0.942-1.545l0.402-0.351
					C272.065,465.716,272.129,465.719,272.194,465.711z"/>
				<path id="XMLID_343_" style="fill:#F9FBFC;" d="M265.044,473.372c-0.386,0.023-0.775,0.035-1.157,0.035
					c-0.88,0-1.733-0.061-2.478-0.179c-0.39-0.062-0.846-0.155-1.27-0.292c1.046,1.861,3.069,3.125,5.388,3.125
					c2.855,0,5.262-1.916,5.95-4.504c-0.682,0.449-1.505,0.825-2.459,1.123C267.839,473.047,266.463,473.286,265.044,473.372z"/>
				<path id="XMLID_339_" style="fill:#F9FBFC;" d="M265.592,464.68c-3.352,0-6.08,2.666-6.08,5.943
					c0,0.426,0.046,0.849,0.137,1.261c0.673,0.483,2.706,0.89,5.348,0.731c2.879-0.173,5.297-0.957,6.672-2.159
					c-0.006-0.195-0.021-0.39-0.045-0.582C271.244,466.913,268.65,464.68,265.592,464.68z M263.432,471.194
					c-1.02,0-1.85-0.83-1.85-1.85c0-1.02,0.83-1.85,1.85-1.85c1.02,0,1.85,0.83,1.85,1.85
					C265.282,470.365,264.452,471.194,263.432,471.194z M268.17,470.286c-0.75,0-1.36-0.61-1.36-1.36s0.61-1.361,1.36-1.361
					c0.75,0,1.361,0.61,1.361,1.361S268.92,470.286,268.17,470.286z"/>
			</g>
			<path id="XMLID_336_" style="fill:#F9FBFC;" d="M281.595,466.547c-0.295-0.116-0.805-0.309-1.382-0.237
				c-0.551,0.069-0.844,0.341-0.844,1.007v0.866h2.228v1.717h-2.228v5.455h-1.932v-5.455h-1.34v-1.717h1.34v-0.888
				c0-1.68,0.896-2.783,2.568-2.783c0.643,0,1.157,0.122,1.59,0.308L281.595,466.547z"/>
			<path id="XMLID_334_" style="fill:#F9FBFC;" d="M286.298,469.879c-0.177-0.03-0.358-0.046-0.526-0.046
				c-0.896,0-1.51,0.548-1.51,1.614v3.908h-1.932v-7.172h1.873v0.785c0.451-0.673,1.14-0.977,2.021-0.977
				c0.414,0,0.848,0.128,1.094,0.337L286.298,469.879z"/>
			<path id="XMLID_331_" style="fill:#F9FBFC;" d="M293.965,471.757c0,0.222-0.015,0.489-0.037,0.651h-5.085
				c0.207,1.036,0.933,1.488,1.843,1.488c0.622,0,1.295-0.252,1.813-0.688l1.133,1.243c-0.814,0.748-1.85,1.088-3.057,1.088
				c-2.198,0-3.723-1.495-3.723-3.753c0-2.258,1.48-3.797,3.627-3.797C292.544,467.99,293.958,469.522,293.965,471.757z
				 M288.851,471.091h3.175c-0.177-0.918-0.733-1.436-1.562-1.436C289.554,469.655,289.021,470.203,288.851,471.091z"/>
			<path id="XMLID_328_" style="fill:#F9FBFC;" d="M301.618,471.757c0,0.222-0.015,0.489-0.037,0.651h-5.085
				c0.207,1.036,0.933,1.488,1.843,1.488c0.622,0,1.295-0.252,1.814-0.688l1.132,1.243c-0.814,0.748-1.85,1.088-3.057,1.088
				c-2.198,0-3.723-1.495-3.723-3.753c0-2.258,1.48-3.797,3.627-3.797C300.197,467.99,301.611,469.522,301.618,471.757z
				 M296.504,471.091h3.175c-0.178-0.918-0.733-1.436-1.562-1.436C297.207,469.655,296.674,470.203,296.504,471.091z"/>
			<path id="XMLID_325_" style="fill:#F9FBFC;" d="M309.964,471.764c0,2.154-1.495,3.775-3.471,3.775
				c-0.962,0-1.643-0.378-2.109-0.933v3.708h-1.924v-10.133h1.887v0.792c0.466-0.585,1.155-0.984,2.139-0.984
				C308.469,467.99,309.964,469.61,309.964,471.764z M304.287,471.764c0,1.132,0.748,1.976,1.843,1.976
				c1.14,0,1.85-0.881,1.85-1.976c0-1.095-0.71-1.976-1.85-1.976C305.035,469.788,304.287,470.632,304.287,471.764z"/>
			<path id="XMLID_322_" style="fill:#F9FBFC;" d="M313.068,465.836c0,0.696-0.54,1.229-1.236,1.229
				c-0.696,0-1.229-0.533-1.229-1.229c0-0.696,0.533-1.243,1.229-1.243C312.527,464.592,313.068,465.14,313.068,465.836z
				 M312.809,475.354h-1.932v-7.172h1.932V475.354z"/>
			<path id="XMLID_320_" style="fill:#F9FBFC;" d="M316.032,470.736l2.701-2.554h2.368l-3.479,3.375l3.501,3.797h-2.376
				l-2.716-2.901v2.901H314.1v-10.658h1.932V470.736z"/>
		</g>
		<g>
			<path style="fill:#F9FBFC;" d="M184.412,475.289v-1.055c-0.527,0.718-1.391,1.23-2.387,1.23c-1.846,0-3.149-1.406-3.149-3.706
				c0-2.256,1.289-3.721,3.149-3.721c0.952,0,1.816,0.469,2.387,1.245v-3.765h1.099v9.77H184.412z M184.412,473.37v-3.208
				c-0.395-0.615-1.245-1.143-2.124-1.143c-1.421,0-2.27,1.172-2.27,2.739c0,1.567,0.85,2.724,2.27,2.724
				C183.168,474.483,184.017,473.986,184.412,473.37z"/>
			<path style="fill:#F9FBFC;" d="M186.932,471.744c0-2.051,1.465-3.706,3.486-3.706c2.139,0,3.398,1.67,3.398,3.794v0.279h-5.727
				c0.088,1.333,1.025,2.446,2.549,2.446c0.805,0,1.626-0.322,2.182-0.894l0.527,0.718c-0.703,0.703-1.655,1.084-2.812,1.084
				C188.44,475.465,186.932,473.956,186.932,471.744z M190.403,468.947c-1.509,0-2.256,1.274-2.314,2.358h4.643
				C192.718,470.25,192.015,468.947,190.403,468.947z"/>
			<path style="fill:#F9FBFC;" d="M194.607,474.351l0.571-0.791c0.469,0.542,1.362,1.011,2.329,1.011c1.084,0,1.67-0.513,1.67-1.216
				c0-1.714-4.38-0.659-4.38-3.281c0-1.098,0.952-2.036,2.636-2.036c1.201,0,2.051,0.454,2.622,1.026l-0.513,0.762
				c-0.424-0.513-1.201-0.894-2.109-0.894c-0.967,0-1.567,0.483-1.567,1.113c0,1.552,4.38,0.527,4.38,3.281
				c0,1.187-0.952,2.138-2.783,2.138C196.306,475.465,195.325,475.113,194.607,474.351z"/>
			<path style="fill:#F9FBFC;" d="M201.477,466.471c0-0.41,0.337-0.747,0.732-0.747c0.41,0,0.747,0.337,0.747,0.747
				c0,0.41-0.337,0.732-0.747,0.732C201.814,467.203,201.477,466.881,201.477,466.471z M201.667,475.289v-7.075h1.099v7.075H201.667
				z"/>
			<path style="fill:#F9FBFC;" d="M204.582,477.105l0.556-0.82c0.586,0.703,1.289,0.967,2.3,0.967c1.172,0,2.27-0.571,2.27-2.124
				v-1.011c-0.513,0.718-1.377,1.26-2.373,1.26c-1.845,0-3.149-1.377-3.149-3.662c0-2.27,1.289-3.677,3.149-3.677
				c0.952,0,1.802,0.469,2.373,1.245v-1.069h1.098v6.87c0,2.344-1.641,3.076-3.369,3.076
				C206.237,478.16,205.417,477.926,204.582,477.105z M209.709,473.253v-3.091c-0.381-0.615-1.23-1.143-2.109-1.143
				c-1.421,0-2.27,1.128-2.27,2.695c0,1.553,0.849,2.695,2.27,2.695C208.478,474.41,209.328,473.868,209.709,473.253z"/>
			<path style="fill:#F9FBFC;" d="M217.413,475.289v-4.629c0-1.245-0.63-1.641-1.582-1.641c-0.865,0-1.685,0.527-2.095,1.099v5.17
				h-1.099v-7.075h1.099v1.025c0.498-0.586,1.464-1.201,2.519-1.201c1.48,0,2.256,0.747,2.256,2.285v4.966H217.413z"/>
			<path style="fill:#F9FBFC;" d="M219.932,471.744c0-2.051,1.465-3.706,3.486-3.706c2.139,0,3.398,1.67,3.398,3.794v0.279h-5.727
				c0.088,1.333,1.025,2.446,2.549,2.446c0.806,0,1.626-0.322,2.183-0.894l0.527,0.718c-0.703,0.703-1.655,1.084-2.812,1.084
				C221.441,475.465,219.932,473.956,219.932,471.744z M223.404,468.947c-1.509,0-2.256,1.274-2.314,2.358h4.643
				C225.718,470.25,225.015,468.947,223.404,468.947z"/>
			<path style="fill:#F9FBFC;" d="M233.35,475.289v-1.055c-0.527,0.718-1.392,1.23-2.388,1.23c-1.846,0-3.149-1.406-3.149-3.706
				c0-2.256,1.289-3.721,3.149-3.721c0.952,0,1.817,0.469,2.388,1.245v-3.765h1.098v9.77H233.35z M233.35,473.37v-3.208
				c-0.396-0.615-1.245-1.143-2.124-1.143c-1.421,0-2.27,1.172-2.27,2.739c0,1.567,0.849,2.724,2.27,2.724
				C232.105,474.483,232.954,473.986,233.35,473.37z"/>
			<path style="fill:#F9FBFC;" d="M239.692,475.289v-9.77h1.098v3.765c0.572-0.776,1.421-1.245,2.388-1.245
				c1.845,0,3.149,1.465,3.149,3.721c0,2.299-1.304,3.706-3.149,3.706c-0.996,0-1.86-0.513-2.388-1.23v1.055H239.692z
				 M242.9,474.483c1.436,0,2.285-1.157,2.285-2.724c0-1.568-0.85-2.739-2.285-2.739c-0.864,0-1.728,0.527-2.109,1.143v3.208
				C241.171,473.986,242.036,474.483,242.9,474.483z"/>
			<path style="fill:#F9FBFC;" d="M247.528,477.061c0.161,0.073,0.425,0.117,0.601,0.117c0.483,0,0.805-0.161,1.055-0.747
				l0.469-1.069l-2.959-7.148h1.187l2.358,5.8l2.344-5.8h1.201l-3.545,8.51c-0.425,1.025-1.143,1.421-2.08,1.435
				c-0.234,0-0.601-0.044-0.805-0.103L247.528,477.061z"/>
		</g>
	</g>
</g>
</svg>
